<svg width="20" height="20" viewBox="0 0 20 20" fill="none" xmlns="http://www.w3.org/2000/svg">
<g clip-path="url(#clip0_37_11119)">
<g opacity="0.7">
<path d="M6.86592 7.76877C6.85136 7.7219 6.83283 7.67648 6.81054 7.63305C6.75328 7.5164 6.68031 7.40891 6.59384 7.31386C6.59384 7.31386 6.54569 7.2196 6.43975 7.05372C6.28504 6.81367 6.1149 6.58484 5.93051 6.36883C5.24427 5.57157 4.42264 4.91373 3.5071 4.42853L0.818848 2.97707L2.47899 5.65504C2.8003 6.17073 3.16534 6.65524 3.56971 7.10273L3.61545 7.14672C3.61545 7.14672 3.67805 7.22966 3.80928 7.38297C3.9405 7.53629 4.14155 7.75998 4.43409 8.04901C4.43409 8.04901 4.68931 8.27898 4.9963 8.50393C5.30329 8.72887 5.66445 8.93497 5.79928 8.96136L5.88235 8.97141C5.93653 8.97141 6.01478 8.99026 6.1147 9.00785C6.31454 9.03927 6.59625 9.09457 6.93454 9.14358C7.3244 9.2021 7.71811 9.22815 8.11193 9.22149C8.64104 9.22893 9.1644 9.10624 9.63965 8.86334L9.57825 8.88973C9.53973 8.90858 9.48074 8.93245 9.40489 8.96136C9.20393 9.03991 8.99691 9.10045 8.7861 9.14232C8.47314 9.20267 8.1557 9.23421 7.83745 9.23657C7.40669 9.24149 6.9765 9.20277 6.55291 9.12096C6.53619 9.0819 6.51688 9.04411 6.49513 9.00785C6.43642 8.91194 6.36734 8.8234 6.28926 8.74395C6.08942 8.53409 5.76558 8.29281 5.15882 8.02513C5.21275 8.01746 5.26742 8.01746 5.32135 8.02513C5.48574 8.04179 5.64751 8.07978 5.8029 8.13824C6.01478 8.21238 6.27722 8.33176 6.60468 8.48256C6.7672 8.55545 6.95019 8.63839 7.15003 8.71379C7.36917 8.79529 7.59422 8.85833 7.823 8.90229C7.79569 8.89461 7.76795 8.88873 7.73993 8.8847C7.67854 8.8759 7.57982 8.86208 7.43054 8.83318C7.21906 8.79312 7.01153 8.73297 6.81054 8.65347C6.4545 8.51195 6.11487 8.329 5.79808 8.10807C5.89402 8.1124 5.98945 8.12501 6.0834 8.14577C6.28008 8.18516 6.46818 8.26183 6.63839 8.37198L6.59023 8.36067C6.56013 8.35187 6.51318 8.34056 6.45179 8.3192C6.26886 8.25494 6.09195 8.17334 5.92328 8.0754C5.6405 7.90884 5.37363 7.71442 5.12632 7.49482C4.78237 7.18961 4.45821 6.86089 4.15599 6.51084C4.47743 6.87653 4.43409 6.82249 4.20896 6.53723C3.85611 6.08825 3.52735 5.61921 3.22419 5.13227L3.10982 5.26799C3.5364 5.49372 3.94501 5.75469 4.33176 6.04838C4.67727 6.31857 4.9337 6.5787 5.00593 6.77474C5.00593 6.77474 5.42488 7.07383 5.85827 7.36035C6.29167 7.64687 6.73951 7.91706 6.8599 7.77757" fill="#FF6E81"/>
</g>
<g opacity="0.7">
<path d="M8.27903 9.95287C8.07841 9.95171 7.87942 9.99053 7.69274 10.0672C7.69274 10.0672 7.53503 10.0861 7.2473 10.1514C6.83049 10.2468 6.41961 10.3685 6.01694 10.5159C4.54862 11.0614 3.17146 11.8442 1.9358 12.8357L-0.00244141 14.3701L2.31502 14.3123C2.4944 14.3123 2.67618 14.301 2.87001 14.2909C2.89649 14.2909 2.92298 14.2834 2.94826 14.2783C2.94826 14.2783 3.07828 14.2696 3.33109 14.2419C3.48802 14.2248 3.64368 14.1966 3.79699 14.1577C3.88849 14.1363 3.98841 14.1187 4.09315 14.0873L4.42662 13.9793L4.49404 13.9541C4.53617 13.9378 4.59877 13.9152 4.6698 13.88L4.91901 13.7543C5.0172 13.7103 5.11287 13.6603 5.20553 13.6048C5.52184 13.436 5.81567 13.2247 6.07954 12.9764C6.14519 12.8719 6.21633 12.7712 6.29263 12.6748L6.41302 12.5228C6.45475 12.465 6.5017 12.4034 6.55387 12.338C6.65861 12.2124 6.77659 12.0679 6.91503 11.9057C6.98125 11.8266 7.05348 11.7461 7.12812 11.6607C7.20276 11.5752 7.2774 11.4822 7.36047 11.3918C7.44353 11.3013 7.52781 11.2045 7.61569 11.104C7.70357 11.0034 7.80229 10.9092 7.89499 10.7999C8.28625 10.3814 8.7377 9.90763 9.25898 9.35469C9.25898 9.35469 9.1735 9.42506 9.03747 9.5633C8.97005 9.63367 8.88939 9.71913 8.79669 9.81463C8.70399 9.91014 8.60046 10.0308 8.48007 10.1552C8.2393 10.4065 7.97806 10.7169 7.67107 11.0675C7.36408 11.4182 7.03301 11.8215 6.6574 12.2827C6.61145 12.2813 6.56547 12.2847 6.52016 12.2928C6.39465 12.3155 6.27136 12.35 6.15178 12.3958C5.95491 12.4765 5.76552 12.5758 5.58595 12.6924C5.4776 12.7615 5.36444 12.8508 5.23563 12.9438C5.17182 12.9903 5.10681 13.0418 5.03819 13.0983L4.93466 13.185L4.8227 13.2717C4.84358 13.2145 4.87238 13.1607 4.90817 13.1122C5.01226 12.9499 5.137 12.8032 5.27896 12.6761C5.65337 12.2903 6.32513 11.8052 7.41223 10.8627C7.41223 10.8627 7.38695 10.8828 7.32555 10.9406C7.26416 10.9984 7.16544 11.0914 7.01736 11.2359C6.94393 11.3088 6.85845 11.3955 6.75251 11.4873C6.64657 11.579 6.5334 11.6996 6.39135 11.814L6.16622 12.005C6.08677 12.0754 5.99527 12.1307 5.90378 12.2086C5.72079 12.3569 5.50289 12.4951 5.26091 12.6572L5.31027 12.5768C5.35454 12.508 5.40278 12.4422 5.45473 12.3795C5.52841 12.2916 5.60637 12.2077 5.68828 12.1282C5.78493 12.0328 5.89297 11.9509 6.00972 11.8844C6.00972 11.8844 5.95434 11.9447 5.83997 12.0565C5.78219 12.1106 5.71116 12.1822 5.62087 12.2601C5.53057 12.338 5.42223 12.4185 5.29702 12.5115C5.17182 12.6045 5.02254 12.6912 4.85881 12.7942C4.77695 12.8445 4.68545 12.8847 4.59155 12.9324C4.49495 12.9842 4.39568 13.0304 4.29419 13.0707C3.80633 13.2752 3.29089 13.399 2.76647 13.4376H2.88686L2.98438 13.4238L3.11199 13.405C3.16857 13.3962 3.16857 13.3949 3.12282 13.3974C3.07707 13.3999 2.98558 13.4125 2.85797 13.4175H2.37642L2.42217 13.5935C2.95067 13.2089 3.73319 12.6685 4.47959 12.2375C5.22599 11.8065 5.92424 11.4835 6.26735 11.4835C6.26735 11.4835 6.80187 11.1794 7.32555 10.8451C7.84924 10.5108 8.35848 10.1414 8.28866 9.96544" fill="#FF6E81"/>
</g>
<g opacity="0.7">
<path d="M9.31419 12.0855C9.21258 12.3178 9.14521 12.5648 9.11435 12.8181C9.11435 12.8181 9.04693 13.0229 8.93858 13.4087C8.83023 13.7945 8.68336 14.3613 8.47027 15.05C8.36192 15.393 8.23793 15.7663 8.07781 16.1521C7.91064 16.559 7.7092 16.9497 7.47587 17.3195C7.44457 17.3673 7.41568 17.4175 7.38317 17.4653L7.35789 17.5005L7.33983 17.5269C7.33904 17.5249 7.33863 17.5227 7.33863 17.5206C7.33863 17.5184 7.33904 17.5163 7.33983 17.5143C7.33983 17.5055 7.33983 17.4967 7.34826 17.4967C7.35669 17.4967 7.34826 17.5055 7.33983 17.5344C7.31716 17.5766 7.28877 17.6151 7.25556 17.6488L7.23871 17.6676C7.23848 17.6646 7.2376 17.6617 7.23614 17.6591C7.23468 17.6565 7.23268 17.6542 7.23028 17.6525C7.22185 17.6412 7.20018 17.6349 7.18935 17.5457C7.18267 17.5271 7.17822 17.5077 7.17611 17.4879C7.17274 17.4735 7.17274 17.4584 7.17611 17.4439L7.21583 17.2818C7.24352 17.1675 7.27242 17.043 7.30372 16.9174C7.36752 16.666 7.43494 16.4009 7.49152 16.1785C7.54034 16.0139 7.57776 15.8459 7.60348 15.6758C7.60348 15.6758 7.60348 15.6381 7.60348 15.5639C7.60348 15.4898 7.61793 15.3842 7.63719 15.2447C7.69273 14.8459 7.78671 14.4539 7.91769 14.0748C8.12401 13.4696 8.40142 12.8934 8.74355 12.3594C9.20189 11.6431 9.75838 11.0008 10.3953 10.453C10.3953 10.453 10.2881 10.5322 10.1063 10.6931C10.0148 10.7735 9.9065 10.8753 9.78731 11.0022C9.66813 11.1291 9.52968 11.2711 9.38763 11.4446C9.24557 11.618 9.09749 11.8077 8.95423 12.0289C8.88079 12.1395 8.80615 12.2539 8.73151 12.3745C8.65687 12.4951 8.58705 12.6258 8.51602 12.7515C8.36515 13.0319 8.23048 13.3214 8.11272 13.6186C7.98436 13.9462 7.87619 14.282 7.78888 14.6239C7.7433 14.655 7.70022 14.6899 7.66006 14.7282C7.54431 14.8399 7.44276 14.9666 7.35789 15.1052C7.11712 15.4659 6.85708 16.0855 6.78003 17.0418C6.75204 16.9777 6.73376 16.9094 6.72586 16.8395C6.69407 16.6017 6.6965 16.3602 6.73308 16.1232C6.75944 15.9202 6.79968 15.7194 6.85347 15.5225C6.92109 15.2563 7.00472 14.9948 7.10387 14.7396C7.39689 13.9917 7.77092 13.2812 8.21866 12.6221C8.07939 12.8263 7.95466 13.0409 7.84546 13.2642C7.77684 13.3899 7.70701 13.5407 7.62395 13.7154L7.49152 13.9981L7.35428 14.3261C7.10861 14.9145 6.894 15.5165 6.71141 16.1294C6.71141 16.1294 6.71141 16.0867 6.70539 16.0113C6.70234 15.9064 6.70717 15.8013 6.71984 15.6971C6.7359 15.5436 6.76286 15.3916 6.8005 15.2422C6.84963 15.0586 6.91617 14.8805 6.99914 14.7107C6.99914 14.7107 6.97265 14.82 6.91486 15.0298C6.85708 15.2397 6.77521 15.5514 6.66325 15.9548C6.61109 16.1575 6.5525 16.3829 6.48749 16.6309L6.26357 17.5243C6.22023 17.7041 6.17207 17.8838 6.13234 18.0622C6.09262 18.2407 6.0577 18.409 6.01918 18.5925C5.98066 18.776 5.94936 18.9457 5.91204 19.1228C5.87472 19.3 5.8398 19.4797 5.8073 19.662C5.80842 19.6791 5.80842 19.6963 5.8073 19.7135V19.6607C5.86388 19.349 5.89398 19.2171 5.88555 19.2372C5.87712 19.2573 5.83499 19.4282 5.77359 19.7097L5.75553 19.9284L5.74951 19.99C5.74951 19.9987 5.75674 19.99 5.76275 19.99L5.78202 19.9812L5.82295 19.9648L5.99029 19.8932C6.23629 19.7812 6.4727 19.6475 6.69696 19.4936C6.95228 19.3164 7.19127 19.1149 7.41086 18.8916C7.64971 18.6464 7.86801 18.3803 8.06336 18.0961C8.80254 17.0104 9.11074 15.7813 9.3792 15.3729C9.3792 15.3729 9.42013 15.1693 9.45986 14.8615C9.50828 14.4863 9.53762 14.1088 9.54774 13.7304C9.56821 12.9111 9.5044 12.0968 9.32623 12.0804" fill="#FF6E81"/>
</g>
<g opacity="0.7">
<path d="M9.19731 11.0487C9.2232 11.1071 9.25255 11.1638 9.28519 11.2184C9.37476 11.367 9.47412 11.5089 9.58255 11.6431L9.83295 12.093C9.99668 12.3845 10.2326 12.8106 10.5095 13.3497C10.8392 14.0038 11.1369 14.6749 11.4016 15.3604C11.5593 15.7638 11.7303 16.2212 11.9638 16.7163C12.2188 17.2785 12.5545 17.7968 12.9594 18.2532L13.9141 19.295L14.2873 17.9705C14.3784 17.6403 14.419 17.2972 14.4077 16.9538L14.3993 16.8457C14.3993 16.8457 14.3993 16.8018 14.3993 16.7201C14.3928 16.5937 14.3791 16.4678 14.3583 16.3431C14.2788 15.8622 14.1196 15.3995 13.8876 14.9758C13.8876 14.9758 13.825 14.8615 13.7143 14.6956C13.5776 14.4956 13.4288 14.3051 13.2688 14.125C12.995 13.806 12.6826 13.5255 12.3394 13.2906C12.3394 13.2906 12.2046 13.2366 11.9783 13.1172C11.6486 12.9479 11.3304 12.7552 11.026 12.5404C9.92357 11.741 8.97286 10.7349 8.22217 9.57336C8.22217 9.57336 9.20333 11.3654 11.4726 12.7817C11.5307 12.9809 11.6251 13.1665 11.7507 13.3283C11.8987 13.5315 12.0643 13.7199 12.2455 13.8913C12.4634 14.1037 12.7379 14.3349 13.0774 14.6277C13.0137 14.6155 12.9518 14.5948 12.8932 14.5661C12.6999 14.476 12.5146 14.3684 12.3394 14.2444C11.997 14.0066 11.6667 13.7503 11.3498 13.4766C10.8079 13.0073 10.297 12.5001 9.82092 11.9585C9.96985 12.1285 10.1278 12.2896 10.294 12.4411C10.4806 12.6158 10.7347 12.8457 11.0778 13.1448C11.4209 13.4439 11.8507 13.7958 12.331 14.2758C12.2142 14.2319 12.1008 14.1789 11.9915 14.1175C11.7318 13.9743 11.4947 13.7904 11.2884 13.5721C11.2884 13.5721 11.3739 13.6261 11.5292 13.7367C11.7567 13.8987 11.9757 14.0732 12.1853 14.2595C12.5207 14.5547 12.8148 14.8973 13.0593 15.2774C13.2125 15.5211 13.3362 15.7837 13.4277 16.0591C13.5349 16.3755 13.5899 16.7087 13.5903 17.0443C13.5919 16.9004 13.5818 16.7566 13.5602 16.6145C13.5505 16.5529 13.5505 16.5655 13.5602 16.6397C13.593 16.9903 13.5595 17.3443 13.4614 17.6814L13.6143 17.6488C13.4781 17.4896 13.3514 17.3217 13.2351 17.1461C13.1072 16.9481 12.9899 16.743 12.8836 16.5316C12.6609 16.0955 12.467 15.6167 12.2816 15.1605C12.0962 14.7044 11.9084 14.2733 11.7519 13.9139C11.6184 13.6446 11.5119 13.3616 11.4341 13.0694C11.4341 13.0694 11.3294 12.9086 11.1584 12.6799C10.9493 12.3989 10.722 12.1331 10.4782 11.8844C9.94973 11.334 9.3189 10.9054 9.1949 11.0437" fill="#FF6E81"/>
</g>
<g opacity="0.7">
<path d="M9.81043 9.59472C9.81988 9.53106 9.82551 9.46684 9.82728 9.40245C9.83216 9.227 9.82452 9.05142 9.80441 8.87716C9.80441 8.87716 9.81524 8.6962 9.8345 8.3569C9.85377 8.01759 9.88266 7.52875 9.94165 6.91549C10.0135 6.18102 10.1208 5.4508 10.2631 4.72761C10.3449 4.30035 10.4449 3.82155 10.5135 3.27364C10.5998 2.65827 10.5953 2.03274 10.5002 1.41879L10.2571 0L9.24099 0.890983C8.9898 1.1127 8.77366 1.37437 8.60053 1.66635L8.54515 1.75935L8.48014 1.87119C8.41789 1.98132 8.36162 2.09502 8.3116 2.21175C8.12375 2.65866 8.01134 3.13611 7.97933 3.623C7.97933 3.623 7.9709 3.74866 7.97933 3.95602C7.9863 4.20151 8.00882 4.44626 8.04675 4.68866C8.10599 5.11245 8.21768 5.52642 8.37902 5.9202C8.37902 5.9202 8.46209 6.04587 8.5921 6.27584C8.77472 6.60802 8.9356 6.95272 9.07365 7.30757C9.56644 8.6057 9.82441 9.98794 9.8345 11.3842C9.8345 11.3842 9.96813 9.32579 8.82927 6.8338C8.88628 6.63434 8.9059 6.42526 8.88705 6.21803C8.86864 5.96344 8.82835 5.71109 8.76667 5.46403C8.69804 5.16117 8.5921 4.8093 8.46449 4.37072C8.51144 4.41697 8.55196 4.46984 8.58488 4.5278C8.6975 4.71484 8.79456 4.9116 8.87501 5.11593C9.03475 5.51129 9.17419 5.91526 9.29276 6.32611C9.49483 7.03056 9.65089 7.74852 9.75986 8.47502C9.72847 8.24973 9.68465 8.02651 9.62864 7.80647C9.56604 7.55514 9.47695 7.21458 9.34934 6.7672C9.22173 6.31982 9.05439 5.78071 8.90632 5.10085C8.98037 5.20479 9.04677 5.31443 9.10496 5.42884C9.24722 5.69575 9.34914 5.984 9.40713 6.28338C9.40713 6.28338 9.36499 6.18913 9.29396 6.00691C9.19111 5.74103 9.1019 5.46963 9.0267 5.19384C8.90352 4.75454 8.8399 4.29939 8.83769 3.84166C8.84021 3.54954 8.8766 3.25881 8.94604 2.97581C9.02434 2.6504 9.15545 2.3414 9.33369 2.06221C9.25598 2.18177 9.18793 2.30787 9.13024 2.43921C9.10616 2.49576 9.11338 2.48571 9.14589 2.42036C9.30488 2.10933 9.52085 1.83393 9.78153 1.6098L9.63586 1.54948C9.66553 1.76052 9.68202 1.97335 9.68522 2.18662C9.68664 2.4254 9.67579 2.66409 9.65272 2.90166C9.60697 3.39428 9.51307 3.90701 9.42639 4.39208C9.33971 4.87716 9.26627 5.34716 9.20608 5.73673C9.1716 6.03607 9.10745 6.33088 9.01466 6.6164C9.01466 6.6164 9.01466 6.80993 9.03754 7.10022C9.06337 7.45503 9.11163 7.80766 9.182 8.15583C9.33008 8.9224 9.62864 9.64625 9.8032 9.60226" fill="#FF6E81"/>
</g>
<g opacity="0.7">
<path d="M11.0107 9.54194C11.1981 9.37659 11.3605 9.18253 11.4922 8.96638C11.4922 8.96638 11.6379 8.81181 11.8943 8.51146C12.1507 8.21112 12.5155 7.765 12.991 7.23845C13.2318 6.97706 13.4955 6.69557 13.7988 6.4191C14.1146 6.12475 14.4551 5.86063 14.8161 5.62991C14.8643 5.601 14.91 5.56833 14.9606 5.54068L14.9967 5.51932C15.0063 5.51932 15.0304 5.49921 15.0244 5.50424C15.0184 5.50926 15.0244 5.50424 15.0244 5.50424C15.0253 5.50621 15.0257 5.50835 15.0257 5.51052C15.0257 5.51269 15.0253 5.51483 15.0244 5.51681C15.0244 5.5256 15.0124 5.53188 15.0087 5.53063C15.0051 5.52937 15.0087 5.51932 15.0328 5.49921C15.0698 5.47169 15.1104 5.4497 15.1532 5.43386H15.1604L15.1833 5.42507C15.1833 5.42507 15.1833 5.42507 15.1833 5.44266C15.1833 5.46025 15.2026 5.47031 15.1761 5.55576C15.1745 5.5759 15.1704 5.59575 15.164 5.61483C15.1615 5.6294 15.1557 5.64316 15.1472 5.65504L15.0461 5.78071L14.8173 6.06974L14.3442 6.66038C14.2342 6.78631 14.1325 6.91982 14.0396 7.06C14.0396 7.06 14.024 7.09519 13.9903 7.16054C13.9566 7.22588 13.9036 7.31637 13.8289 7.43449C13.6125 7.77368 13.364 8.08943 13.0874 8.377C12.6534 8.82998 12.1683 9.22622 11.6427 9.55702C10.9328 9.99665 10.165 10.3252 9.36377 10.5322C9.36377 10.5322 9.49258 10.5096 9.72493 10.4442C9.84532 10.4128 9.98015 10.3701 10.1403 10.3085C10.3004 10.2469 10.4834 10.1828 10.6784 10.0848C10.8734 9.9868 11.0877 9.88627 11.314 9.7518C11.4248 9.6852 11.5392 9.61483 11.6559 9.53943C11.7727 9.46403 11.8883 9.37731 12.0087 9.28809C12.2603 9.10164 12.5015 8.90024 12.731 8.68489C12.9807 8.44654 13.2159 8.1922 13.4353 7.92334C13.4892 7.91621 13.5424 7.90401 13.5942 7.8869C13.7448 7.83738 13.8888 7.76813 14.0228 7.6808C14.3839 7.46088 14.8775 7.01853 15.3398 6.18913C15.339 6.25966 15.3277 6.32962 15.3061 6.39648C15.2345 6.62495 15.1307 6.84098 14.9979 7.03738C14.8916 7.20969 14.7738 7.37389 14.6452 7.52874C14.4741 7.73849 14.2912 7.9374 14.0974 8.12441C13.5252 8.66813 12.8955 9.14202 12.2206 9.53691C12.4311 9.41543 12.6323 9.2772 12.8225 9.12347C12.9357 9.04178 13.0633 8.93748 13.2077 8.81558L13.4485 8.61954L13.7086 8.3858C14.1735 7.96484 14.6156 7.51719 15.0328 7.04492C15.0328 7.04492 15.0196 7.08514 14.9907 7.15425C14.9497 7.24983 14.9022 7.34223 14.8486 7.43072C14.7703 7.56246 14.6834 7.68843 14.5886 7.80773C14.4683 7.95129 14.3349 8.08219 14.1901 8.19855C14.1901 8.19855 14.2599 8.11184 14.3984 7.94722C14.5368 7.78259 14.7379 7.53754 15.0003 7.22337L15.4373 6.6918L16.0068 5.98429C16.1199 5.84228 16.2367 5.70028 16.3463 5.55828L16.6665 5.12849C16.776 4.98774 16.8748 4.84197 16.9807 4.69745C17.0866 4.55293 17.1926 4.40716 17.2961 4.25636L17.3202 4.21112L17.2961 4.25762C17.1167 4.50895 17.0349 4.61954 17.0553 4.60446C17.0758 4.58938 17.1757 4.45617 17.3515 4.22746L17.4562 4.0377L17.4875 3.98366C17.4948 3.98366 17.4875 3.98366 17.4755 3.98366H17.455H17.4117L17.2311 3.97361C16.9627 3.96476 16.6941 3.97948 16.4281 4.01759C16.1221 4.0622 15.8206 4.13624 15.5276 4.23877C15.2107 4.35721 14.9042 4.50394 14.6115 4.67735C13.4979 5.32579 12.7142 6.29846 12.3048 6.54854C12.3048 6.54854 12.1845 6.71442 12.0207 6.97329C11.8244 7.28985 11.6436 7.61658 11.479 7.95224C11.1178 8.68363 10.8506 9.44266 10.9974 9.5432" fill="#FF6E81"/>
</g>
<g opacity="0.7">
<path d="M10.8627 11.2259C11.0204 11.3556 11.2007 11.452 11.3936 11.5099C11.3936 11.5099 11.5284 11.5954 11.7945 11.7273C12.1798 11.9194 12.5758 12.0873 12.9803 12.23C14.4635 12.7364 16.0138 12.9959 17.5743 12.9991L20.0061 13.0242L18.1329 11.5878C17.9896 11.476 17.8368 11.3629 17.6827 11.251C17.6599 11.2359 17.6362 11.2225 17.6116 11.2108C17.6116 11.2108 17.5057 11.1341 17.289 10.9947C17.1547 10.9082 17.0152 10.831 16.8712 10.7634C16.7858 10.722 16.6967 10.6717 16.5956 10.6302L16.2693 10.5046L16.2007 10.4819C16.1407 10.4604 16.0796 10.4424 16.0177 10.4279L15.7504 10.3638C15.6469 10.3364 15.542 10.315 15.4362 10.2997C15.0859 10.2318 14.7284 10.2123 14.3732 10.2419C14.26 10.2828 14.1446 10.3167 14.0277 10.3437L13.8435 10.3877L13.6244 10.443L13.0887 10.5573C12.99 10.5774 12.8852 10.595 12.7769 10.6139C12.6685 10.6327 12.5541 10.6604 12.435 10.6792C12.3158 10.6981 12.1942 10.7194 12.0654 10.7433C11.9366 10.7672 11.8029 10.7773 11.6645 10.8049C11.1107 10.8866 10.4799 10.9758 9.73828 11.0763C9.73828 11.0763 9.84783 11.0763 10.0368 11.0525C10.1307 11.0399 10.2463 11.0248 10.3799 11.011C10.5136 10.9972 10.6629 10.9645 10.8302 10.9431C11.1637 10.8954 11.5525 10.8175 12.0052 10.7383C12.4578 10.6591 12.9538 10.5473 13.5197 10.4254C13.557 10.4565 13.5974 10.4834 13.64 10.5058C13.7528 10.5672 13.8704 10.6185 13.9916 10.6591C14.1923 10.7199 14.3977 10.762 14.6056 10.7848C14.7259 10.7986 14.874 10.8011 15.0281 10.8124C15.1052 10.8124 15.187 10.8124 15.2689 10.8124L15.4073 10.8074H15.5458C15.4955 10.839 15.4412 10.8631 15.3845 10.879C15.207 10.9408 15.0223 10.9771 14.8355 10.9871C14.313 11.0525 13.498 11.0072 12.0858 11.0575C12.0858 11.0575 12.1171 11.0575 12.199 11.05C12.2809 11.0424 12.4145 11.0336 12.6155 11.0135C12.7167 11.0035 12.8359 10.9896 12.9767 10.9833C13.1176 10.9771 13.2741 10.9557 13.4583 10.9582L13.7484 10.9507C13.8519 10.9507 13.9591 10.9507 14.0746 10.9507C14.307 10.9507 14.5562 10.9808 14.8463 11.0072L14.7596 11.0386C14.6843 11.0646 14.6075 11.086 14.5297 11.1027C14.4211 11.1246 14.3113 11.1401 14.2011 11.1492C14.0686 11.1619 13.9351 11.1573 13.8038 11.1354C13.8038 11.1354 13.8832 11.1241 14.0445 11.109C14.1228 11.109 14.2215 11.0902 14.3371 11.0877C14.4527 11.0851 14.5875 11.0877 14.7428 11.0939C14.8981 11.1002 15.0642 11.1266 15.2544 11.1505C15.3495 11.1631 15.4447 11.1894 15.547 11.2108C15.6493 11.2322 15.7577 11.2535 15.8636 11.2912C16.3681 11.4442 16.8469 11.6778 17.283 11.9837L17.1831 11.9095L17.0976 11.8567L16.9856 11.7901C16.9363 11.7612 16.9351 11.7625 16.9724 11.7901C17.0097 11.8178 17.0928 11.8668 17.1939 11.9447L17.5731 12.2538L17.6405 12.0855C16.9977 12.0528 16.061 11.9799 15.2183 11.8442C14.3756 11.7085 13.6148 11.5262 13.3463 11.3101C13.3463 11.3101 12.7444 11.2096 12.1352 11.1392C11.526 11.0688 10.906 11.0349 10.8603 11.2183" fill="#FF6E81"/>
</g>
</g>
<defs>
<clipPath id="clip0_37_11119">
<rect width="20" height="20" fill="white"/>
</clipPath>
</defs>
</svg>
